#N canvas -1928 232 1920 997 10;
#X text 177 277 creation arguments are OSC address;
#X text 179 238 set message to change OSC address;
#X text 164 48 1 Set IP Address : network address;
#X text 164 68 2 Set Ports (sending and listening);
#X text 164 87 3 Set OSC Addresses (routing osc data;
#X text 155 26 Key Settings;
#X floatatom 43 194 5 0 0 0 - - - 0;
#X obj 480 156 select 0 1 2 3 4 5 6 7 8;
#X floatatom 518 387 5 0 0 0 - - - 0;
#X obj 517 356 mtof;
#X obj 517 321 + 0;
#X floatatom 824 257 5 0 0 0 - - - 0;
#X obj 824 204 loadbang;
#X msg 475 227 0;
#X floatatom 480 92 5 0 0 0 - - - 0;
#N canvas 1099 23 623 462 oscReceive 0;
#X obj 55 184 netreceive -u -b;
#X msg 78 143 listen 0;
#X text 152 143 stop listening;
#X text 64 58 packets from network;
#X text 173 177 UDP packets \, binary output, f 13;
#X obj 45 314 print;
#X obj 45 272 oscparse;
#X text 150 114 listen on port 8000;
#X obj 177 269 oscparse;
#X obj 177 293 list trim;
#X floatatom 140 380 5 0 0 0 - - - 0;
#X text 241 267 Parse the OSC message;
#X obj 177 319 route unity;
#X obj 139 357 route trigger;
#X obj 140 407 s osctrig;
#X msg 66 115 listen 8000;
#X obj 66 84 loadbang;
#X floatatom 244 382 5 0 0 0 - - - 0;
#X obj 243 359 route tempo;
#X obj 244 409 s osctempo;
#X floatatom 339 382 5 0 0 0 - - - 0;
#X obj 338 359 route playseq;
#X obj 339 409 s oscplayseq;
#X floatatom 437 382 5 0 0 0 - - - 0;
#X obj 436 359 route colwall;
#X obj 437 409 s oscwall;
#X connect 0 0 6 0;
#X connect 0 0 8 0;
#X connect 1 0 0 0;
#X connect 6 0 5 0;
#X connect 8 0 9 0;
#X connect 9 0 12 0;
#X connect 10 0 14 0;
#X connect 12 0 13 0;
#X connect 12 0 18 0;
#X connect 12 0 21 0;
#X connect 12 0 24 0;
#X connect 13 0 10 0;
#X connect 15 0 0 0;
#X connect 16 0 15 0;
#X connect 17 0 19 0;
#X connect 18 0 17 0;
#X connect 20 0 22 0;
#X connect 21 0 20 0;
#X connect 23 0 25 0;
#X connect 24 0 23 0;
#X restore 47 142 pd oscReceive;
#X obj 47 36 tgl 15 0 empty empty empty 17 7 0 10 #fcfcfc #000000 #000000 0 1;
#X msg 47 61 \; pd dsp \$1;
#X msg 514 227 2;
#X msg 555 227 4;
#X msg 597 227 5;
#X msg 634 228 7;
#X msg 675 228 9;
#X msg 717 228 11;
#X msg 751 228 12;
#X obj 480 59 r osctrig;
#X obj 44 278 oscformat PD message;
#X msg 76 239 set PD message;
#N canvas 727 97 450 300 oscSend 0;
#X msg 158 207 disconnect;
#X obj 61 253 netsend -u -b;
#X obj 59 55 list prepend send;
#X obj 59 80 list trim;
#X msg 150 175 connect 127.0.0.1 8001;
#X obj 59 29 r oscOut;
#X text 301 163 send to port 8001;
#X msg 147 148 connect localhost 8001;
#X obj 147 108 loadbang;
#X connect 0 0 1 0;
#X connect 2 0 3 0;
#X connect 3 0 1 0;
#X connect 4 0 1 0;
#X connect 5 0 2 0;
#X connect 7 0 1 0;
#X connect 8 0 7 0;
#X restore 47 118 pd oscSend;
#X obj 44 313 s oscOut;
#X obj 2179 93 r osctempo;
#X obj 1992 27 r oscplayseq;
#X obj 1040 65 r oscwall;
#X msg 824 231 60;
#X obj 531 436 * 1.5;
#X text 476 32 Tirgger when picking up rotating cube...;
#X text 971 23 Trigger noise burst when running into a wall;
#X obj 2113 20 loadbang;
#X floatatom 2114 136 5 0 0 0 - - - 0;
#X obj 2075 134 tgl 19 0 empty empty empty 0 -10 0 12 #fcfcfc #000000 #000000 0 1;
#X obj 2075 180 metro;
#X obj 2018 180 sel 0;
#X obj 2020 222 bng 19 250 50 0 empty empty empty 0 -10 0 12 #fcfcfc #000000 #000000;
#X obj 1947 168 loadbang;
#X msg 2020 246 -1;
#X obj 2082 308 int 1;
#X obj 2081 230 bng 19 250 50 0 empty empty empty 0 -10 0 12 #fcfcfc #000000 #000000;
#X obj 2172 358 + 1;
#X floatatom 2082 332 5 0 0 0 - - - 0;
#X obj 2081 370 % 8;
#X floatatom 2081 394 5 0 0 0 - - - 0;
#X obj 1827 513 bng 19 250 50 0 empty empty empty 0 -10 0 12 #fcfcfc #000000 #000000;
#X obj 1884 513 bng 19 250 50 0 empty empty empty 0 -10 0 12 #fcfcfc #000000 #000000;
#X obj 1941 513 bng 19 250 50 0 empty empty empty 0 -10 0 12 #fcfcfc #000000 #000000;
#X obj 2016 514 bng 19 250 50 0 empty empty empty 0 -10 0 12 #fcfcfc #000000 #000000;
#X obj 2091 512 bng 19 250 50 0 empty empty empty 0 -10 0 12 #fcfcfc #000000 #000000;
#X obj 2145 513 bng 19 250 50 0 empty empty empty 0 -10 0 12 #fcfcfc #000000 #000000;
#X obj 2209 513 bng 19 250 50 0 empty empty empty 0 -10 0 12 #fcfcfc #000000 #000000;
#X obj 2265 513 bng 19 250 50 0 empty empty empty 0 -10 0 12 #fcfcfc #000000 #000000;
#X obj 1884 537 s Two;
#X obj 1941 537 s Three;
#X obj 2016 538 s Four;
#X obj 2091 536 s Five;
#X obj 2145 537 s Six;
#X obj 2209 537 s Seven;
#X obj 2265 537 s Eight;
#X obj 1827 537 s One;
#X obj 2425 87 spigot;
#X obj 2482 87 spigot;
#X obj 2539 87 spigot;
#X obj 2614 87 spigot;
#X obj 2689 87 spigot;
#X obj 2743 87 spigot;
#X obj 2807 87 spigot;
#X obj 2881 87 spigot;
#X obj 2425 111 bng 19 250 50 0 empty empty empty 0 -10 0 12 #fcfcfc #000000 #000000;
#X obj 2482 111 bng 19 250 50 0 empty empty empty 0 -10 0 12 #fcfcfc #000000 #000000;
#X obj 2539 111 bng 19 250 50 0 empty empty empty 0 -10 0 12 #fcfcfc #000000 #000000;
#X obj 2614 111 bng 19 250 50 0 empty empty empty 0 -10 0 12 #fcfcfc #000000 #000000;
#X obj 2689 111 bng 19 250 50 0 empty empty empty 0 -10 0 12 #fcfcfc #000000 #000000;
#X obj 2743 111 bng 19 250 50 0 empty empty empty 0 -10 0 12 #fcfcfc #000000 #000000;
#X obj 2807 111 bng 19 250 50 0 empty empty empty 0 -10 0 12 #fcfcfc #000000 #000000;
#X obj 2881 111 bng 19 250 50 0 empty empty empty 0 -10 0 12 #fcfcfc #000000 #000000;
#X obj 2632 163 s Kick;
#X obj 1761 584 bng 19 250 50 0 empty empty empty 0 -10 0 12 #fcfcfc #000000 #000000;
#X obj 2464 45 tgl 19 0 empty empty empty 0 -10 0 12 #fcfcfc #000000 #000000 0 1;
#X obj 2520 46 tgl 19 0 empty empty empty 0 -10 0 12 #fcfcfc #000000 #000000 0 1;
#X obj 2574 45 tgl 19 0 empty empty empty 0 -10 0 12 #fcfcfc #000000 #000000 0 1;
#X obj 2642 45 tgl 19 0 empty empty empty 0 -10 0 12 #fcfcfc #000000 #000000 0 1;
#X obj 2706 45 tgl 19 0 empty empty empty 0 -10 0 12 #fcfcfc #000000 #000000 0 1;
#X obj 2756 45 tgl 19 0 empty empty empty 0 -10 0 12 #fcfcfc #000000 #000000 0 1;
#X obj 2822 45 tgl 19 0 empty empty empty 0 -10 0 12 #fcfcfc #000000 #000000 0 1;
#X obj 2895 45 tgl 19 0 empty empty empty 0 -10 0 12 #fcfcfc #000000 #000000 0 1;
#X obj 1651 660 noise~;
#X msg 1752 688 1 5;
#X obj 1747 814 line;
#X floatatom 1747 854 5 0 0 0 - - - 0;
#X obj 1837 609 delay 5;
#X obj 1839 647 bng 19 250 50 0 empty empty empty 0 -10 0 12 #fcfcfc #000000 #000000;
#X obj 1915 694 delay 100;
#X obj 1915 734 bng 19 250 50 0 empty empty empty 0 -10 0 12 #fcfcfc #000000 #000000;
#X msg 1915 772 0 150;
#X obj 1651 703 *~ 0.5;
#X obj 1650 836 *~;
#X obj 1497 964 dac~;
#X obj 2402 3 r One;
#X obj 2485 -4 r Two;
#X obj 2542 -4 r Three;
#X obj 2617 -4 r Four;
#X obj 2683 -19 r Five;
#X obj 2746 -4 r Six;
#X obj 2810 -4 r Seven;
#X obj 2884 -4 r Eight;
#X obj 2413 36 bng 19 250 50 0 empty empty empty 0 -10 0 12 #fcfcfc #000000 #000000;
#X obj 2485 20 bng 19 250 50 0 empty empty empty 0 -10 0 12 #fcfcfc #000000 #000000;
#X obj 2542 20 bng 19 250 50 0 empty empty empty 0 -10 0 12 #fcfcfc #000000 #000000;
#X obj 2617 20 bng 19 250 50 0 empty empty empty 0 -10 0 12 #fcfcfc #000000 #000000;
#X obj 2685 13 bng 19 250 50 0 empty empty empty 0 -10 0 12 #fcfcfc #000000 #000000;
#X obj 2746 20 bng 19 250 50 0 empty empty empty 0 -10 0 12 #fcfcfc #000000 #000000;
#X obj 2810 20 bng 19 250 50 0 empty empty empty 0 -10 0 12 #fcfcfc #000000 #000000;
#X obj 2884 20 bng 19 250 50 0 empty empty empty 0 -10 0 12 #fcfcfc #000000 #000000;
#X obj 2426 297 spigot;
#X obj 2483 297 spigot;
#X obj 2540 297 spigot;
#X obj 2615 297 spigot;
#X obj 2690 297 spigot;
#X obj 2744 297 spigot;
#X obj 2808 297 spigot;
#X obj 2882 297 spigot;
#X obj 2483 321 bng 19 250 50 0 empty empty empty 0 -10 0 12 #fcfcfc #000000 #000000;
#X obj 2540 321 bng 19 250 50 0 empty empty empty 0 -10 0 12 #fcfcfc #000000 #000000;
#X obj 2615 321 bng 19 250 50 0 empty empty empty 0 -10 0 12 #fcfcfc #000000 #000000;
#X obj 2690 321 bng 19 250 50 0 empty empty empty 0 -10 0 12 #fcfcfc #000000 #000000;
#X obj 2744 321 bng 19 250 50 0 empty empty empty 0 -10 0 12 #fcfcfc #000000 #000000;
#X obj 2808 321 bng 19 250 50 0 empty empty empty 0 -10 0 12 #fcfcfc #000000 #000000;
#X obj 2882 321 bng 19 250 50 0 empty empty empty 0 -10 0 12 #fcfcfc #000000 #000000;
#X obj 2465 255 tgl 19 0 empty empty empty 0 -10 0 12 #fcfcfc #000000 #000000 0 1;
#X obj 2521 256 tgl 19 0 empty empty empty 0 -10 0 12 #fcfcfc #000000 #000000 0 1;
#X obj 2575 255 tgl 19 0 empty empty empty 0 -10 0 12 #fcfcfc #000000 #000000 0 1;
#X obj 2643 255 tgl 19 0 empty empty empty 0 -10 0 12 #fcfcfc #000000 #000000 0 1;
#X obj 2707 255 tgl 19 0 empty empty empty 0 -10 0 12 #fcfcfc #000000 #000000 0 1;
#X obj 2757 255 tgl 19 0 empty empty empty 0 -10 0 12 #fcfcfc #000000 #000000 0 1;
#X obj 2823 255 tgl 19 0 empty empty empty 0 -10 0 12 #fcfcfc #000000 #000000 0 1;
#X obj 2896 255 tgl 19 0 empty empty empty 0 -10 0 12 #fcfcfc #000000 #000000 0 1;
#X obj 2429 206 r One;
#X obj 2486 206 r Two;
#X obj 2543 206 r Three;
#X obj 2618 206 r Four;
#X obj 2693 206 r Five;
#X obj 2747 206 r Six;
#X obj 2811 206 r Seven;
#X obj 2885 206 r Eight;
#X obj 2486 230 bng 19 250 50 0 empty empty empty 0 -10 0 12 #fcfcfc #000000 #000000;
#X obj 2543 230 bng 19 250 50 0 empty empty empty 0 -10 0 12 #fcfcfc #000000 #000000;
#X obj 2618 230 bng 19 250 50 0 empty empty empty 0 -10 0 12 #fcfcfc #000000 #000000;
#X obj 2693 230 bng 19 250 50 0 empty empty empty 0 -10 0 12 #fcfcfc #000000 #000000;
#X obj 2747 230 bng 19 250 50 0 empty empty empty 0 -10 0 12 #fcfcfc #000000 #000000;
#X obj 2811 230 bng 19 250 50 0 empty empty empty 0 -10 0 12 #fcfcfc #000000 #000000;
#X obj 2885 230 bng 19 250 50 0 empty empty empty 0 -10 0 12 #fcfcfc #000000 #000000;
#X obj 2425 516 spigot;
#X obj 2482 516 spigot;
#X obj 2539 516 spigot;
#X obj 2614 516 spigot;
#X obj 2689 516 spigot;
#X obj 2743 516 spigot;
#X obj 2807 516 spigot;
#X obj 2881 516 spigot;
#X obj 2482 540 bng 19 250 50 0 empty empty empty 0 -10 0 12 #fcfcfc #000000 #000000;
#X obj 2539 540 bng 19 250 50 0 empty empty empty 0 -10 0 12 #fcfcfc #000000 #000000;
#X obj 2614 540 bng 19 250 50 0 empty empty empty 0 -10 0 12 #fcfcfc #000000 #000000;
#X obj 2689 540 bng 19 250 50 0 empty empty empty 0 -10 0 12 #fcfcfc #000000 #000000;
#X obj 2743 540 bng 19 250 50 0 empty empty empty 0 -10 0 12 #fcfcfc #000000 #000000;
#X obj 2807 540 bng 19 250 50 0 empty empty empty 0 -10 0 12 #fcfcfc #000000 #000000;
#X obj 2881 540 bng 19 250 50 0 empty empty empty 0 -10 0 12 #fcfcfc #000000 #000000;
#X obj 2464 474 tgl 19 0 empty empty empty 0 -10 0 12 #fcfcfc #000000 #000000 0 1;
#X obj 2520 475 tgl 19 0 empty empty empty 0 -10 0 12 #fcfcfc #000000 #000000 0 1;
#X obj 2574 474 tgl 19 0 empty empty empty 0 -10 0 12 #fcfcfc #000000 #000000 0 1;
#X obj 2642 474 tgl 19 0 empty empty empty 0 -10 0 12 #fcfcfc #000000 #000000 0 1;
#X obj 2706 474 tgl 19 0 empty empty empty 0 -10 0 12 #fcfcfc #000000 #000000 0 1;
#X obj 2756 474 tgl 19 0 empty empty empty 0 -10 0 12 #fcfcfc #000000 #000000 0 1;
#X obj 2822 474 tgl 19 0 empty empty empty 0 -10 0 12 #fcfcfc #000000 #000000 0 1;
#X obj 2895 474 tgl 19 0 empty empty empty 0 -10 0 12 #fcfcfc #000000 #000000 0 1;
#X obj 2428 425 r One;
#X obj 2485 425 r Two;
#X obj 2542 425 r Three;
#X obj 2617 425 r Four;
#X obj 2692 425 r Five;
#X obj 2746 425 r Six;
#X obj 2810 425 r Seven;
#X obj 2884 425 r Eight;
#X obj 2485 449 bng 19 250 50 0 empty empty empty 0 -10 0 12 #fcfcfc #000000 #000000;
#X obj 2542 449 bng 19 250 50 0 empty empty empty 0 -10 0 12 #fcfcfc #000000 #000000;
#X obj 2617 449 bng 19 250 50 0 empty empty empty 0 -10 0 12 #fcfcfc #000000 #000000;
#X obj 2692 449 bng 19 250 50 0 empty empty empty 0 -10 0 12 #fcfcfc #000000 #000000;
#X obj 2746 449 bng 19 250 50 0 empty empty empty 0 -10 0 12 #fcfcfc #000000 #000000;
#X obj 2810 449 bng 19 250 50 0 empty empty empty 0 -10 0 12 #fcfcfc #000000 #000000;
#X obj 2884 449 bng 19 250 50 0 empty empty empty 0 -10 0 12 #fcfcfc #000000 #000000;
#X obj 2633 373 s Snare;
#X obj 2632 592 s Hihat;
#X obj 2429 237 bng 16 250 50 0 empty empty empty 0 -8 0 10 #fcfcfc #000000 #000000;
#X obj 1635 188 bng 19 250 50 0 empty empty empty 0 -10 0 12 #fcfcfc #000000 #000000;
#X obj 1525 264 noise~;
#X msg 1626 292 1 5;
#X obj 1621 418 line;
#X floatatom 1621 458 5 0 0 0 - - - 0;
#X obj 1711 213 delay 5;
#X obj 1713 251 bng 19 250 50 0 empty empty empty 0 -10 0 12 #fcfcfc #000000 #000000;
#X obj 1789 298 delay 100;
#X obj 1789 338 bng 19 250 50 0 empty empty empty 0 -10 0 12 #fcfcfc #000000 #000000;
#X msg 1789 376 0 150;
#X obj 1525 307 *~ 0.5;
#X obj 1523 558 *~;
#X obj 1295 347 r Kick;
#X obj 1295 370 bng 19 250 50 0 empty empty empty 0 -10 0 12 #fcfcfc #000000 #000000;
#X obj 1185 446 noise~;
#X msg 1286 474 1 5;
#X obj 1281 600 line;
#X floatatom 1281 640 5 0 0 0 - - - 0;
#X obj 1371 395 delay 5;
#X obj 1373 433 bng 19 250 50 0 empty empty empty 0 -10 0 12 #fcfcfc #000000 #000000;
#X obj 1449 480 delay 100;
#X obj 1449 520 bng 19 250 50 0 empty empty empty 0 -10 0 12 #fcfcfc #000000 #000000;
#X msg 1449 558 0 150;
#X obj 1185 489 *~ 0.5;
#X obj 1184 622 *~;
#X obj 1185 531 lop~ 500;
#X msg 1373 493 0.2 100;
#X obj 1635 165 r Snare;
#X obj 1761 561 r Hihat;
#X obj 2426 462 bng 16 250 50 0 empty empty empty 0 -8 0 10 #fcfcfc #000000 #000000;
#X msg 1713 311 0.9 100;
#X obj 1651 745 hip~ 7000;
#X msg 1839 707 0.05 100;
#X msg 2114 98 300;
#X obj 1827 489 sel 0;
#X obj 1884 489 sel 1;
#X obj 1941 489 sel 2;
#X obj 2016 490 sel 3;
#X obj 2092 489 sel 4;
#X obj 2145 488 sel 5;
#X obj 2209 489 sel 6;
#X obj 2265 489 sel 7;
#X obj 1650 876 *~ 0.8;
#X obj 1523 598 *~ 1;
#X obj 1183 662 *~ 2;
#X obj 1525 349 hip~ 3000;
#X obj 1598 717 vsl 16 136 0 1 0 0 empty empty empty 0 -9 0 10 #fcfcfc #000000 #000000 0 1;
#X obj 1064 357 dac~;
#X obj 1070 152 noise~;
#X obj 1066 288 *~;
#X obj 1065 322 *~ 1;
#X obj 1056 107 bng 19 250 50 0 empty empty empty 0 -10 0 12 #fcfcfc #000000 #000000;
#X msg 1141 182 1 5;
#X obj 1111 301 vline~;
#X obj 1141 212 delay 5;
#X obj 1145 235 bng 19 250 50 0 empty empty empty 0 -10 0 12 #fcfcfc #000000 #000000;
#X obj 982 221 *~ 0.1;
#X obj 982 187 hip~ 8000;
#X obj 1070 181 *~ 1;
#X obj 1067 207 bp~ 150 4;
#X obj 1066 234 *~ 20;
#X obj 1033 259 clip~ -0.9 0.9;
#X msg 1212 264 0 300;
#X obj 1195 237 delay 50;
#X msg 1144 263 0.25 50;
#X obj 940 157 vsl 19 162 0 1 0 0 empty empty empty 0 -9 0 12 #fcfcfc #000000 #000000 0 1;
#X obj 502 735 dac~;
#X obj 504 666 *~;
#X obj 503 700 *~ 1;
#X msg 579 558 1 5;
#X obj 563 667 vline~;
#X obj 579 590 delay 5;
#X obj 583 613 bng 19 250 50 0 empty empty empty 0 -10 0 12 #fcfcfc #000000 #000000;
#X obj 420 599 *~ 0.1;
#X obj 420 565 hip~ 8000;
#X obj 508 559 *~ 1;
#X obj 505 585 bp~ 150 4;
#X obj 504 612 *~ 20;
#X obj 471 637 clip~ -0.9 0.9;
#X msg 650 642 0 300;
#X obj 633 615 delay 50;
#X msg 582 641 0.25 50;
#X obj 700 553 vsl 19 162 0 1 0 0 empty empty empty 0 -9 0 12 #fcfcfc #000000 #000000 0 1;
#X obj 471 495 osc~;
#X obj 539 510 osc~;
#X obj 2430 327 bng 19 250 50 0 empty empty empty 0 -10 0 12 #fcfcfc #000000 #000000;
#X obj 2424 542 bng 19 250 50 0 empty empty empty 0 -10 0 12 #fcfcfc #000000 #000000;
#X obj 2464 -28 loadbang;
#X obj 2731 -31 loadbang;
#X obj 2572 176 loadbang;
#X obj 2826 174 loadbang;
#X obj 2523 388 loadbang;
#X obj 2647 399 loadbang;
#X obj 2752 382 loadbang;
#X obj 2902 372 loadbang;
#X obj 596 463 bng 16 250 50 0 empty empty empty 0 -8 0 10 #fcfcfc #000000 #000000;
#X text 1914 -8 Sequence drum beat: changes rhythm with each cube picked up;
#X obj 1503 923 *~ 1;
#X text 1530 691 drum volume slider;
#X text 898 115 noise sound volume slider;
#X text 651 519 pickup volume slider;
#X connect 6 0 26 0;
#X connect 7 0 13 0;
#X connect 7 1 18 0;
#X connect 7 2 19 0;
#X connect 7 3 20 0;
#X connect 7 4 21 0;
#X connect 7 5 22 0;
#X connect 7 6 23 0;
#X connect 7 7 24 0;
#X connect 7 8 13 0;
#X connect 8 0 34 0;
#X connect 8 0 283 0;
#X connect 9 0 8 0;
#X connect 10 0 9 0;
#X connect 10 0 295 0;
#X connect 11 0 10 1;
#X connect 12 0 33 0;
#X connect 13 0 10 0;
#X connect 14 0 7 0;
#X connect 16 0 17 0;
#X connect 18 0 10 0;
#X connect 19 0 10 0;
#X connect 20 0 10 0;
#X connect 21 0 10 0;
#X connect 22 0 10 0;
#X connect 23 0 10 0;
#X connect 24 0 10 0;
#X connect 25 0 14 0;
#X connect 26 0 29 0;
#X connect 27 0 26 0;
#X connect 30 0 38 0;
#X connect 31 0 233 0;
#X connect 31 0 39 0;
#X connect 32 0 251 0;
#X connect 33 0 11 0;
#X connect 34 0 284 0;
#X connect 37 0 233 0;
#X connect 38 0 40 1;
#X connect 39 0 40 0;
#X connect 39 0 41 0;
#X connect 40 0 46 0;
#X connect 41 0 42 0;
#X connect 42 0 44 0;
#X connect 43 0 42 0;
#X connect 44 0 45 0;
#X connect 45 0 47 0;
#X connect 45 0 48 0;
#X connect 46 0 45 0;
#X connect 47 0 45 1;
#X connect 48 0 49 0;
#X connect 49 0 50 0;
#X connect 50 0 234 0;
#X connect 50 0 235 0;
#X connect 50 0 236 0;
#X connect 50 0 237 0;
#X connect 50 0 238 0;
#X connect 50 0 239 0;
#X connect 50 0 240 0;
#X connect 50 0 241 0;
#X connect 51 0 66 0;
#X connect 52 0 59 0;
#X connect 53 0 60 0;
#X connect 54 0 61 0;
#X connect 55 0 62 0;
#X connect 56 0 63 0;
#X connect 57 0 64 0;
#X connect 58 0 65 0;
#X connect 67 0 75 0;
#X connect 68 0 76 0;
#X connect 69 0 77 0;
#X connect 70 0 78 0;
#X connect 71 0 79 0;
#X connect 72 0 80 0;
#X connect 73 0 81 0;
#X connect 74 0 82 0;
#X connect 75 0 83 0;
#X connect 76 0 83 0;
#X connect 77 0 83 0;
#X connect 78 0 83 0;
#X connect 79 0 83 0;
#X connect 80 0 83 0;
#X connect 81 0 83 0;
#X connect 82 0 83 0;
#X connect 84 0 94 0;
#X connect 84 0 97 0;
#X connect 85 0 67 1;
#X connect 86 0 68 1;
#X connect 87 0 69 1;
#X connect 88 0 70 1;
#X connect 89 0 71 1;
#X connect 90 0 72 1;
#X connect 91 0 73 1;
#X connect 92 0 74 1;
#X connect 93 0 102 0;
#X connect 94 0 95 0;
#X connect 95 0 96 0;
#X connect 96 0 103 1;
#X connect 97 0 98 0;
#X connect 98 0 232 0;
#X connect 98 0 99 0;
#X connect 99 0 100 0;
#X connect 99 0 95 0;
#X connect 100 0 101 0;
#X connect 101 0 95 0;
#X connect 102 0 231 0;
#X connect 103 0 242 0;
#X connect 105 0 113 0;
#X connect 106 0 114 0;
#X connect 107 0 115 0;
#X connect 108 0 116 0;
#X connect 109 0 117 0;
#X connect 110 0 118 0;
#X connect 111 0 119 0;
#X connect 112 0 120 0;
#X connect 113 0 67 0;
#X connect 114 0 68 0;
#X connect 115 0 69 0;
#X connect 116 0 70 0;
#X connect 117 0 71 0;
#X connect 118 0 72 0;
#X connect 119 0 73 0;
#X connect 120 0 74 0;
#X connect 121 0 285 0;
#X connect 122 0 129 0;
#X connect 123 0 130 0;
#X connect 124 0 131 0;
#X connect 125 0 132 0;
#X connect 126 0 133 0;
#X connect 127 0 134 0;
#X connect 128 0 135 0;
#X connect 129 0 197 0;
#X connect 130 0 197 0;
#X connect 131 0 197 0;
#X connect 132 0 197 0;
#X connect 133 0 197 0;
#X connect 134 0 197 0;
#X connect 135 0 197 0;
#X connect 136 0 121 1;
#X connect 137 0 122 1;
#X connect 138 0 123 1;
#X connect 139 0 124 1;
#X connect 140 0 125 1;
#X connect 141 0 126 1;
#X connect 142 0 127 1;
#X connect 143 0 128 1;
#X connect 144 0 199 0;
#X connect 145 0 152 0;
#X connect 146 0 153 0;
#X connect 147 0 154 0;
#X connect 148 0 155 0;
#X connect 149 0 156 0;
#X connect 150 0 157 0;
#X connect 151 0 158 0;
#X connect 152 0 122 0;
#X connect 153 0 123 0;
#X connect 154 0 124 0;
#X connect 155 0 125 0;
#X connect 156 0 126 0;
#X connect 157 0 127 0;
#X connect 158 0 128 0;
#X connect 159 0 286 0;
#X connect 160 0 167 0;
#X connect 161 0 168 0;
#X connect 162 0 169 0;
#X connect 163 0 170 0;
#X connect 164 0 171 0;
#X connect 165 0 172 0;
#X connect 166 0 173 0;
#X connect 167 0 198 0;
#X connect 168 0 198 0;
#X connect 169 0 198 0;
#X connect 170 0 198 0;
#X connect 171 0 198 0;
#X connect 172 0 198 0;
#X connect 173 0 198 0;
#X connect 174 0 159 1;
#X connect 175 0 160 1;
#X connect 176 0 161 1;
#X connect 177 0 162 1;
#X connect 178 0 163 1;
#X connect 179 0 164 1;
#X connect 180 0 165 1;
#X connect 181 0 166 1;
#X connect 182 0 229 0;
#X connect 183 0 190 0;
#X connect 184 0 191 0;
#X connect 185 0 192 0;
#X connect 186 0 193 0;
#X connect 187 0 194 0;
#X connect 188 0 195 0;
#X connect 189 0 196 0;
#X connect 190 0 160 0;
#X connect 191 0 161 0;
#X connect 192 0 162 0;
#X connect 193 0 163 0;
#X connect 194 0 164 0;
#X connect 195 0 165 0;
#X connect 196 0 166 0;
#X connect 199 0 121 0;
#X connect 200 0 202 0;
#X connect 200 0 205 0;
#X connect 201 0 210 0;
#X connect 202 0 203 0;
#X connect 203 0 204 0;
#X connect 204 0 211 1;
#X connect 205 0 206 0;
#X connect 206 0 230 0;
#X connect 206 0 207 0;
#X connect 207 0 208 0;
#X connect 207 0 203 0;
#X connect 208 0 209 0;
#X connect 209 0 203 0;
#X connect 210 0 245 0;
#X connect 211 0 243 0;
#X connect 212 0 213 0;
#X connect 213 0 215 0;
#X connect 213 0 218 0;
#X connect 214 0 223 0;
#X connect 215 0 216 0;
#X connect 216 0 217 0;
#X connect 217 0 224 1;
#X connect 218 0 219 0;
#X connect 219 0 226 0;
#X connect 219 0 220 0;
#X connect 220 0 221 0;
#X connect 220 0 216 0;
#X connect 221 0 222 0;
#X connect 222 0 216 0;
#X connect 223 0 225 0;
#X connect 224 0 244 0;
#X connect 225 0 224 0;
#X connect 226 0 216 0;
#X connect 227 0 200 0;
#X connect 228 0 84 0;
#X connect 229 0 159 0;
#X connect 230 0 203 0;
#X connect 231 0 103 0;
#X connect 232 0 95 0;
#X connect 233 0 38 0;
#X connect 234 0 51 0;
#X connect 235 0 52 0;
#X connect 236 0 53 0;
#X connect 237 0 54 0;
#X connect 238 0 55 0;
#X connect 239 0 56 0;
#X connect 240 0 57 0;
#X connect 241 0 58 0;
#X connect 242 0 297 0;
#X connect 243 0 297 0;
#X connect 244 0 297 0;
#X connect 245 0 211 0;
#X connect 246 0 297 1;
#X connect 248 0 258 0;
#X connect 249 0 250 0;
#X connect 250 0 247 0;
#X connect 250 0 247 1;
#X connect 251 0 252 0;
#X connect 252 0 254 0;
#X connect 253 0 249 1;
#X connect 254 0 255 0;
#X connect 255 0 264 0;
#X connect 255 0 263 0;
#X connect 256 0 261 0;
#X connect 257 0 256 0;
#X connect 258 0 259 0;
#X connect 259 0 260 0;
#X connect 260 0 261 0;
#X connect 261 0 249 0;
#X connect 262 0 253 0;
#X connect 263 0 262 0;
#X connect 264 0 253 0;
#X connect 265 0 250 1;
#X connect 267 0 268 0;
#X connect 268 0 266 0;
#X connect 268 0 266 1;
#X connect 269 0 271 0;
#X connect 270 0 267 1;
#X connect 271 0 272 0;
#X connect 272 0 281 0;
#X connect 272 0 280 0;
#X connect 273 0 278 0;
#X connect 274 0 273 0;
#X connect 275 0 276 0;
#X connect 276 0 277 0;
#X connect 277 0 278 0;
#X connect 278 0 267 0;
#X connect 279 0 270 0;
#X connect 280 0 279 0;
#X connect 281 0 270 0;
#X connect 282 0 268 1;
#X connect 283 0 275 0;
#X connect 284 0 275 0;
#X connect 285 0 197 0;
#X connect 286 0 198 0;
#X connect 287 0 85 0;
#X connect 288 0 89 0;
#X connect 289 0 138 0;
#X connect 290 0 142 0;
#X connect 291 0 175 0;
#X connect 292 0 177 0;
#X connect 293 0 179 0;
#X connect 294 0 181 0;
#X connect 295 0 269 0;
#X connect 297 0 104 0;
#X connect 297 0 104 1;
